<svg id="Layer_1" data-name="Layer 1" xmlns="http://www.w3.org/2000/svg" width="64px" height="64px" viewBox="0 0 512 512"><defs><style>.cls-1{fill:#d4953f;}</style></defs><title>network-glyph</title><path class="cls-1" d="M217.6,38.4A38.4,38.4,0,1,1,256,76.8,38.44,38.44,0,0,1,217.6,38.4ZM435.2,435.2a32,32,0,1,0-32-32A32,32,0,0,0,435.2,435.2Zm-358.4,0a32,32,0,1,0-32-32A32,32,0,0,0,76.8,435.2ZM192,153.6H320a12.8,12.8,0,0,0,12.8-12.8,76.57,76.57,0,0,0-29-60,63.8,63.8,0,0,1-95.69,0,76.57,76.57,0,0,0-29,60A12.8,12.8,0,0,0,192,153.6ZM481.17,437.8a57.44,57.44,0,0,1-91.94,0,76.54,76.54,0,0,0-30.83,61.4A12.8,12.8,0,0,0,371.2,512h128A12.8,12.8,0,0,0,512,499.2,76.54,76.54,0,0,0,481.17,437.8Zm-358.4,0a57.44,57.44,0,0,1-91.94,0A76.54,76.54,0,0,0,0,499.2,12.8,12.8,0,0,0,12.8,512h128a12.8,12.8,0,0,0,12.8-12.8A76.54,76.54,0,0,0,122.77,437.8ZM353,335.18,268.8,275V204.8a12.8,12.8,0,1,0-25.6,0V275L159,335.18A12.8,12.8,0,0,0,173.84,356L256,297.33,338.16,356A12.8,12.8,0,0,0,353,335.18Z"/></svg>
