<?xml version="1.0" standalone="no"?>
<!DOCTYPE svg PUBLIC "-//W3C//DTD SVG 20010904//EN"
 "http://www.w3.org/TR/2001/REC-SVG-20010904/DTD/svg10.dtd">
<svg version="1.0" xmlns="http://www.w3.org/2000/svg"
 width="600.000000pt" height="300.000000pt" viewBox="0 0 600.000000 300.000000"
 preserveAspectRatio="xMidYMid meet">
<metadata>
Created by potrace 1.15, written by Peter Selinger 2001-2017
</metadata>
<g transform="translate(0.000000,300.000000) scale(0.100000,-0.100000)"
fill="#000000" stroke="none">
<path d="M220 1505 l0 -1495 2700 0 2700 0 0 1495 0 1495 -2700 0 -2700 0 0
-1495z m1710 578 l1 -158 74 78 c68 73 76 78 109 75 l36 -3 -69 -75 -69 -76
79 -104 c43 -58 79 -108 79 -112 0 -5 -15 -8 -34 -8 -31 0 -40 7 -101 91 -62
83 -69 89 -84 74 -11 -10 -18 -40 -21 -88 l-5 -72 -30 0 -30 0 -3 268 -2 267
35 0 35 0 0 -157z m-750 -98 l0 -225 121 0 120 0 -3 -27 -3 -28 -150 0 -150 0
-3 253 -2 252 35 0 35 0 0 -225z m1860 209 c54 -22 83 -65 84 -123 1 -57 -19
-99 -61 -127 l-32 -21 58 -104 c32 -57 57 -107 54 -111 -2 -5 -17 -8 -33 -8
-26 0 -34 9 -85 105 l-57 105 -58 0 -59 0 -3 -102 -3 -103 -30 0 -30 0 -3 253
-2 252 110 0 c77 0 121 -5 150 -16z m-604 -120 c46 -22 75 -72 81 -144 l6 -60
-127 0 -126 0 0 -25 c0 -39 48 -85 95 -92 32 -4 48 0 79 22 33 22 41 24 53 12
21 -20 6 -44 -41 -67 -115 -55 -235 8 -252 133 -22 160 105 281 232 221z
m1404 1 c52 -27 60 -57 60 -225 l0 -150 -30 0 -30 0 0 123 c0 125 -10 184 -32
199 -24 15 -85 8 -109 -11 -23 -18 -24 -27 -29 -163 l-5 -143 -30 0 -30 0 -3
188 -2 187 35 0 c29 0 35 -4 35 -22 l0 -21 23 20 c12 11 29 23 37 26 29 11 81
7 110 -8z m579 -14 c65 -47 93 -160 62 -253 -41 -124 -212 -145 -294 -36 -43
58 -41 187 5 249 52 70 158 89 227 40z m423 -10 l28 -31 0 -160 0 -160 -29 0
-30 0 -3 151 c-3 135 -5 152 -22 165 -33 23 -86 18 -118 -13 l-28 -27 0 -138
0 -138 -30 0 -30 0 0 190 0 190 30 0 c23 0 30 -4 30 -20 0 -18 2 -18 38 6 31
22 45 25 86 21 40 -4 55 -11 78 -36z m-3311 -98 c1 -152 6 -174 43 -192 35
-17 100 -1 116 29 5 10 10 80 10 154 l0 136 35 0 35 0 -2 -187 -3 -188 -28 -3
c-22 -3 -30 1 -34 18 -5 20 -7 20 -24 4 -25 -22 -115 -29 -149 -12 -48 26 -60
69 -60 226 l0 142 30 0 30 0 1 -127z m1740 5 c0 -68 5 -138 12 -157 19 -56 91
-67 137 -21 18 18 20 34 20 160 l0 140 35 0 35 0 -2 -187 -3 -188 -28 -3 c-17
-2 -29 2 -33 12 -5 12 -10 13 -39 0 -42 -17 -102 -18 -135 -1 -48 24 -60 68
-60 225 l0 142 30 0 30 0 1 -122z m797 -65 l-3 -188 -30 0 -30 0 -3 188 -2
187 35 0 35 0 -2 -187z m-2047 -546 c111 -47 134 -193 45 -276 -14 -14 -26
-27 -26 -31 0 -4 22 -47 50 -96 27 -49 50 -99 50 -112 0 -22 -3 -23 -52 -20
l-53 3 -55 103 -55 103 -40 -3 -40 -3 -3 -102 -3 -103 -54 0 -55 0 0 273 c0
151 3 277 8 282 12 12 246 -2 283 -18z m383 -121 c63 -26 106 -115 106 -217
l0 -29 -125 0 c-134 0 -143 -4 -103 -47 31 -33 93 -32 129 3 l27 26 36 -27 36
-27 -22 -30 c-40 -57 -151 -85 -225 -57 -35 13 -80 55 -101 94 -25 48 -22 159
7 219 44 89 146 129 235 92z m376 -5 c43 -22 80 -74 80 -112 0 -28 -1 -29 -55
-29 -46 0 -55 3 -55 18 0 10 -5 23 -12 30 -17 17 -73 15 -89 -4 -11 -14 -11
-18 4 -29 10 -7 34 -16 54 -20 60 -11 123 -46 138 -76 20 -37 19 -99 -1 -128
-24 -33 -91 -61 -150 -61 -94 0 -174 65 -174 142 0 27 2 28 50 28 40 0 52 -4
56 -17 13 -43 21 -48 70 -48 42 0 49 3 52 21 3 18 -9 25 -84 50 -101 33 -129
60 -129 124 0 102 142 166 245 111z m230 -127 c0 -81 5 -154 10 -165 14 -25
71 -26 93 -1 13 14 17 46 19 162 l3 145 53 3 52 3 0 -215 0 -214 -122 -1
c-199 0 -218 24 -218 268 0 81 3 151 7 154 3 4 28 7 55 7 l48 0 0 -146z m385
137 c3 -6 17 -6 36 1 40 14 125 5 147 -15 17 -16 21 -15 57 3 77 39 180 17
210 -46 12 -25 15 -70 15 -199 l0 -166 -52 3 -53 3 -3 149 c-1 90 -7 155 -14
163 -6 7 -22 13 -37 13 -60 -1 -71 -30 -71 -194 l0 -136 -55 0 -55 0 0 153 c0
106 -4 157 -12 165 -19 19 -66 14 -88 -8 -18 -18 -20 -33 -20 -165 l0 -145
-55 0 -55 0 0 208 c0 115 3 212 7 215 10 11 91 8 98 -2z m772 -8 c56 -26 85
-80 91 -168 l5 -75 -127 0 -127 0 12 -22 c19 -35 40 -47 82 -48 28 0 45 7 63
26 l26 25 34 -23 c19 -13 34 -28 34 -34 0 -16 -62 -72 -93 -83 -70 -27 -174
-4 -220 47 -43 47 -60 161 -36 233 38 113 157 169 256 122z"/>
<path d="M2850 2065 l0 -95 78 0 c45 1 84 6 93 13 39 30 51 96 24 134 -19 27
-72 43 -142 43 l-53 0 0 -95z"/>
<path d="M2317 2019 c-17 -10 -47 -59 -47 -79 0 -6 35 -10 94 -10 l95 0 -9 31
c-14 48 -38 69 -79 69 -20 0 -44 -5 -54 -11z"/>
<path d="M4255 2000 c-25 -26 -30 -40 -33 -93 -6 -107 48 -171 126 -151 56 14
77 52 77 139 0 68 -2 76 -29 104 -42 44 -100 44 -141 1z"/>
<path d="M1840 1190 l0 -70 64 0 c58 0 67 3 85 26 26 34 27 68 1 94 -16 16
-33 20 -85 20 l-65 0 0 -70z"/>
</g>
</svg>
